<svg height="147" viewBox="0 0 192 147" width="192" xmlns="http://www.w3.org/2000/svg"><g fill="none" fill-rule="evenodd"><g><path d="m.00048591.0010725h191.58849909v141.1834355h-191.58849909z"/><path d="m107.199871 140.18719c46.679156-3.21035 58.070835 1.62305 75.355659-4.2328 4.172864-1.83755 6.767276-11.8976 7.78806-30.20875.380141-16.041025.758352-32.064175 1.149105-48.09805.377247-11.400675-.350231-22.5368-2.19401-33.379775-1.853427-10.83225-4.283819-16.2019-7.29407-16.062475-6.74798.7293-15.536563 2.2594-66.56997-6.731725-34.4760601-5.06935-59.8818088 4.222075-85.9667937 8.4656-5.2795176.861575-10.1692463 7.17145-15.2181709 11.443575-9.56526633 9.11625-14.3160603 37.323-14.24755779 84.6131-.05113568 8.390525 1.0960402 16.6881 3.42994975 24.882 2.33101508 8.211775 4.53467337 11.021725 6.77595984 10.156575 20.0287839-7.74345 56.2463517 1.95195 96.9918388-.847275" fill="#fff"/></g><g transform="translate(3 -11)"><g fill="#373a36"><path d="m40.1851852 49.4759036h10.2555624c5.7407408 0 6.8175101 3.7457726 6.8175101 5.9342381 0 2.9034792-1.8833952 4.4338328-3.3193413 4.8718254 1.225919.3122101 3.468491 1.6853356 3.468491 4.9639161 0 2.2491106-1.0470916 6.0914662-6.7878324 6.0914662h-10.4343898zm8.3128117 8.586901c1.8826343 0 2.5401104-1.1238066 2.5401104-2.2161677 0-.9074308-.4185323-2.1869681-2.5401104-2.1869681h-2.0645055v4.4031358zm-2.0645055 4.2459077v4.4675245h2.1223391c1.8849171 0 2.5431542-1.1537549 2.5431542-2.2476133 0-.9059334-.4794097-2.2199112-2.5431542-2.2199112z"/><path d="m59.7037037 49.4759036h9.4719353c4.5107186 0 7.4124134 3.7457726 7.4124134 8.1511545 0 2.9671191-1.3529286 5.652725-3.6090053 7.0572961l3.9468788 6.6529952h-6.9059619l-3.3536275-5.5928285h-1.0989855v5.5928285h-5.8636473zm10.9087943 8.1511545c0-1.6875817-1.0157725-3.0921528-2.5932328-3.0921528h-2.4519142v6.1843057h2.4246548c1.5767429 0 2.6204922-1.4045712 2.6204922-3.0921529z"/><path d="m91.9027464 71.3373494-.7066803-2.5313726h-6.9302678l-.7059301 2.5313726h-6.6339423l7.6069405-21.8614458h6.4261393l7.781735 21.8614458zm-4.15531-15.3027874-2.1815565 8.0575663h4.3616126z"/><path d="m128.419026 62.436297v-12.9603934h5.914307v21.8614458h-6.000752l-6.481245-12.5231645v12.5231645h-5.888373v-21.8614458h6.001473z"/><path d="m38.7767155 80.3488517h-4.3322711v-5.5596951h14.925926v5.5596951h-4.3338027v16.3017507h-6.2598522z"/><path d="m50.5185185 74.7891566h6.1240895v13.8320494c0 1.4628721 1.059391 2.6786521 2.5016313 2.6786521s2.4731612-1.21578 2.4731612-2.6786521v-13.8320494h6.1233402v13.8940046c0 4.624046-3.2396088 7.9674412-8.5965014 7.9674412-5.3568925 0-8.6257208-3.3433952-8.6257208-7.9674412z"/><path d="m94.1481481 96.6506024h-5.9404186v-13.5548451l-3.7345547 13.5548451h-4.5262115l-3.9710041-13.5548451v13.5548451h-5.9389222v-21.8614458h7.7916085l4.3503709 14.1156061 4.3817976-14.1156061h7.5873341z"/><path d="m117.111111 74.7891566h6.124356v13.8320494c0 1.4628721 1.059437 2.6786521 2.502489 2.6786521 1.443053 0 2.471771-1.21578 2.471771-2.6786521v-13.8320494h6.123606v13.8940046c0 4.624046-3.236752 7.9674412-8.595377 7.9674412-5.360122 0-8.626845-3.3433952-8.626845-7.9674412z"/><path d="m136.62963 74.7891566h9.472007c4.510377 0 7.413031 3.7471417 7.413031 8.1516241 0 2.9670174-1.353042 5.6517826-3.609306 7.0570543l3.94649 6.6527674h-6.90582l-3.353189-5.5911396h-1.099078v5.5911396h-5.864135zm10.911138 8.1516241c0-1.6867753-1.017292-3.0905496-2.596319-3.0905496h-2.450684v6.1833452h2.424857c1.576157 0 2.622146-1.404523 2.622146-3.0927956z"/><path d="m65.8154502 36.8761071h-2.6673021v-3.5086372h9.1851852v3.5086372h-2.6665444v10.2985917h-3.8513387z"/><path d="m81.0411468 42.025403h-3.658571v5.1492958h-3.9010943v-13.8072289h3.9010943v5.2458499h3.658571v-5.2458499h3.9218162v13.8072289h-3.9218162z"/><path d="m89.8168676 36.4445268v2.405091h4.3312805v2.9417516h-4.3312805v2.3062724h4.3312805v3.077057h-8.037037v-13.8072289h8.037037v3.0770569z"/><path d="m66.5925926 108.391939c-.4038159 2.936956-2.7516525 5.5177-6.7342679 5.5177-4.4569866 0-7.0435099-3.254232-7.0435099-6.902173 0-3.630635 2.5302293-6.905056 7.0074817-6.905056 3.9998789 0 6.4025084 2.600933 6.7335173 5.744839h-4.0006295c-.219922-1.235209-1.136389-2.206503-2.7328878-2.206503-2.036343 0-3.099925 1.587096-3.099925 3.36672 0 1.907976 1.2294618 3.36672 3.1359532 3.36672 1.4681484 0 2.4409094-.858805 2.6968596-1.982247z"/><path d="m75.3011735 108.762624h-3.6578035v5.147015h-3.9026293v-13.807229h3.9026293v5.248891h3.6578035v-5.248891h3.9210487v13.807229h-3.9210487z"/><path d="m88.680637 113.909639-.447934-1.596651h-4.3742121l-.4464103 1.596651h-4.1898584l4.8023395-13.807229h4.0603536l4.9150847 13.807229zm-2.6266603-9.666581-1.3765589 5.090275h2.756165z"/><path d="m93 100.10241h6.3154684c3.0070366 0 4.9422726 2.366084 4.9422726 5.148819 0 1.874924-.902649 3.570415-2.406551 4.457697l2.630291 4.200713h-4.6055091l-2.2343256-3.528599h-.7319608v3.528599h-3.9096855zm7.273476 5.148819c0-1.066715-.6766026-1.952476-1.7291806-1.952476h-1.6346099v3.905712h1.6161571c1.0495026 0 1.7476334-.888802 1.7476334-1.953236z"/></g><path d="m0 191h186v-191h-186z"/><path d="m105.62963 113.909639h3.444444v-13.807229h-3.444444z" fill="#373a36"/><path d="m114.036695 103.612761h-2.666325v-3.510351h9.185186v3.510351h-2.66784v10.296878h-3.851021z" fill="#373a36"/><path d="m126.878919 113.909639h-4.25225l2.198979-4.872067-4.270092-8.935162h4.432896l2.053272 4.912362 1.925407-4.912362h4.218054z" fill="#373a36"/><path d="m113.666667 85.3354847c-.342166 6.0464733-4.989603 9.894498-10.895909 8.8403967-4.8549926-.864733-7.7276803-6.2572936-5.6325735-10.560986.2429-.4993112.4722638-1.020814.6001059-1.5541523.8219497-3.4041926 3.3201346-5.7461469 6.5410046-6.0834593 3.098291-.3269564 6.473323 1.5082896 7.853266 4.5048963.706892 1.5356592 1.034769 3.2310981 1.534106 4.8533046" fill="#e81140"/><path d="m110.969863 53.3536841c.135975-7.8419981.607639-9.751745.29603-12.6584175-.109064-.7040108-.871091-1.1455582-2.288207-1.3282675-1.246439-.0754038-2.492169-.1500826-3.739316-.2262114-.881006-.0710537-1.752805.0442272-2.616105.3480176-.858343.3059656-1.296721.708361-1.311594 1.2137116 0 1.1354077.048158 2.6108575-1.075761 11.1771674-.6805841 5.7872437-.167136 10.0598856-.052407 14.442733.020538.8881701.473788 1.713262.764152 2.5622801.628885 1.6146569 2.786073 2.4317734 6.47015 2.4520745.652964.0123256 1.309469-.1725588 1.96739-.5619036.65863-.3864446.896586-.7540382.846304-1.1317824-.434838-3.367796.61897-9.4457795.739364-16.2894018" fill="#e81140"/><path d="m102.254218 157.429337c35.526677-.654077 44.196682.33068 57.351855-.86239 3.175893-.374383 5.150454-2.424016 5.927354-6.154728.289319-3.268196.577168-6.532751.874564-9.799491.287116-2.322772-.266555-4.591645-1.669822-6.800792-1.410611-2.206961-3.260339-3.300973-5.551388-3.272567-5.135767.148588-11.824602.46033-50.665223-1.37152-26.239118-1.032829-45.5749828.860205-65.4278022 1.72478-4.0181472.175537-7.7396329 1.46111-11.5822799 2.331513-7.2799546 1.857343-10.8956996 7.604183-10.8435636 17.239063-.0389184 1.709485.8341768 3.400032 2.610474 5.069456 1.7740942 1.673066 3.4512594 2.245565 5.1570628 2.069299 15.2435522-1.577649 42.8081007.397691 73.8187689-.172623" fill="#71dbd4"/><path d="m30.139819 144.406091c-.0245553.075822-.0714337.246613-.1391469.513138-.0669691.266525-.1503085.583598-.2485298.950453l1.4227215-.151644-.1294736-.760515c-.0625045-.2918-.1145916-.580535-.1570054-.865441-.043902-.284907-.0900362-.554495-.1391469-.808766-.0245553-.101096-.0491107-.208319-.073666-.3232-.0245554-.11335-.0491107-.228232-.073666-.342347-.1726315.570578-.3266605 1.16643-.4620869 1.788322m-2.8268404 1.882526c.0491106 0 .1540289-.019147.3140107-.057441.0491106-.304053.13245-.671674.2492739-1.102863.1168239-.430423.2522503-.902969.4062792-1.416872.154029-.513138.3110343-1.061506.4717602-1.645104.4308346-1.609873.7813062-2.770177 1.0529032-3.480144.1726315-.342347.4732483-.513904.9055711-.513904.1235208 0 .2522503.026806.3876768.076588.1354264.050548.2529944.114116.3512157.189937.4434843.418935.72029.951219.8319052 1.59762.0483665.254271.0915244.510839.1294736.770472.0364609.260398.0669691.516967.0915244.770472.5915605 3.004535 1.1942824 5.451512 1.8103982 7.34093.0863158.215211.1294736.43655.1294736.664781 0 .367621-.147332.684694-.4434843.951219-.2582031.241252-.5045006.361494-.7388925.361494-.7634478-.127135-1.2374403-.729115-1.4227214-1.807469-.0245554-.176918-.0617604-.386002-.1108711-.627253-.0498548-.240486-.1049183-.500118-.1659346-.779663-.3326132.038294-.6004897.073524-.8036293.104925s-.3668419.054377-.4896186.066631c-.3207076.051314-.6533208.075822-.9978397.075822l-.2954082 1.350241c-.1235208.608106-.2314154 1.081418-.323684 1.416872-.0922685.33622-.1748638.605043-.2492739.808766-.1108711.316308-.3631214.474844-.7582391.474844-.147332 0-.2768056-.025274-.3869326-.075822-.2589472-.101861-.4620869-.23206-.610163-.390597-.1480761-.158536-.2284391-.325498-.2403447-.503947v-.189937c0-.557559.1354264-1.197832.4062793-1.92082.0863157-.215211.2157893-.576705.3884208-1.083716l-.2403447-.05744c-.2708528-.215212-.4062793-.424296-.4062793-.627254 0-.164663.0483666-.304053.1473321-.418168.1235208-.151644.3266604-.259633.610163-.3232" fill="#373a36"/><path d="m41.2607427 147.988899c-.3397698-.484946-.6035284-1.024692-.7927961-1.62149-.1885076-.596798-.2827614-1.149306-.2827614-1.659024 0-1.901497.4271825-3.366843 1.2830679-4.399041.4910319-.596047 1.0573148-1.102763 1.6988488-1.519396.6422941-.416632 1.2138978-.649346 1.7178516-.698892l.2637586-.018767c.2896024 0 .5792048.099842.8688072.298024.1885076.125365.2835216.361082.2835216.708651 0 .286013-.0760112.528485-.2272733.727418-.1505021.198182-.3770152.334808-.6795395.409877-.5784448.124614-1.2268197.528485-1.9436047 1.211613-.3656135.360331-.6225312.779966-.7737933 1.258155-.1512622.47819-.2272733 1.083996-.2272733 1.816669 0 .448162.0790516.907584.2363946 1.379768.1573431.472183.3557321.885813.5944071 1.240139.239435.353575.47811.599801.7183052.735676.3511714.186171.7228658.354325 1.1128029.503712.389177.148637.8361225.286013 1.3400763.409877.1885076.037534.3390097.137376.4530263.298024.1132566.161398.1695049.347569.1695049.560014 0 .284511-.1033752.539746-.3116457.763451-.2075104.223706-.437064.335559-.6886608.335559-.2896024 0-.6324126-.049546-1.0284306-.149388-.3967781-.099091-.7829147-.22896-1.1614501-.391109-1.0185492-.422638-1.8926772-1.155311-2.6231442-2.19952" fill="#373a36"/><path d="m48.2407621 142.16198c0-.099528-.00309-.242788-.0092699-.42978-.0069525-.187746-.00927-.412437-.00927-.674829 0-1.035241.4349147-1.553238 1.3039714-1.553238.307453 0 .7168753.10556 1.2282669.317434v.917616c0 .312156-.0100424.662012-.0285823 1.048813-.0200848.387555-.0293548.817335-.0293548 1.2916 0 .499902.00927.999049.0293548 1.498196.0185399.499147.0285823 1.017145.0285823 1.553992v1.366246c0 .262392.0316723.549665.0950169.861821.0393972.249574.1089218.448629.2108911.598675.1027418.150046.223251.225446.3653901.225446.536884 0 .9586662-.562483 1.2661192-1.685942.1274616-.461447.226341-.932697.296638-1.413748.0695246-.480297.1313241-.969643.1830813-1.469544.0502122-.498393.1205092-1.004326.2101186-1.516292.0386248-.261637.0957894-.954562.1730389-2.078775.0509846-.523275.1405941-.904045.2688282-1.141554.2170711-.436566.5747362-.655225 1.0737679-.655225.5878687 0 1.0420957.230723 1.3619086.692925-.076477 1.397914-.237156 2.752096-.4789469 4.062546-.1668589.886703-.301273 1.61959-.4032423 2.200169-.1027419.580579-.1792188 1.026193-.230976 1.339102-.3198129 1.35946-.8080297 2.427123-1.4669678 3.20148-.6589382.772849-1.4352956 1.160404-2.3306172 1.160404-1.3047439 0-2.116636-.437319-2.4364489-1.311204-.3962899-1.072941-.5940486-2.501769-.5940486-4.287238 0-.648439-.0131324-1.3293-.0378523-2.040321-.0254923-.711775-.0393972-1.403946-.0393972-2.078775" fill="#373a36"/><path d="m59.835395 140.777971c-.0948218-.474606-.3543341-.711908-.7792497-.711908-.105516 0-.171107.011471-.1946342.035846-.0477673.319749-.0705816.652403-.0705816.996528 0 .189986.0178236.640933.052758 1.352841 0 .083164.0028518.16346.0092683.240171.0057035.077428.0085553.157724.0085553.24017.5432647-.557052.8562478-1.10335.9382366-1.637461.0121201-.083163.0206754-.154139.026379-.213644.0057035-.059505.0092683-.112557.0092683-.160591zm-3.4164359 7.102594.052758-.569957c.0712946-.758508.1062289-1.376499.1062289-1.851105v-1.940004c0-1.281865.0149719-2.189494.0442026-2.724322.0292308-.53411.079137-1.002263.1504316-1.405893.1661163-.878236.8911821-1.316995 2.1780491-1.316995h.2473922c.7436024.023659 1.3930959.402913 1.9470547 1.13848.4848031.629462.7257788 1.365746.7257788 2.208135 0 .664591-.2302815 1.329182-.6894185 1.993773-.3664541.534111-.8327206.99151-1.3995125 1.370764-.0235272.023659-.0705816.047318-.1404503.071693.0463415.047317.1112196.10037.1939213.159158l.5839025.445211 1.983415 1.709154c.8491183.735567 1.4451409 1.365029 1.7873549 1.886951.0712946.106823.1062289.225115.1062289.356313 0 .462418-.4306192.800807-1.2925706 1.014452-.6487806-.462418-1.4872047-1.175044-2.5131336-2.135726-.3308068-.321183-.5960226-.578559-.7963604-.774997-.2010507-.195721-.3757224-.361332-.5225892-.498265-.1475798-.136216-.3037149-.263829-.4691183-.382839-.0121201.166327-.026379.356313-.0442026.569957-.0185366.213644-.0327955.445212-.0449156.694702 0 .034413-.0028518.076712-.0085553.124029-.0057036.047317-.0085554.088899-.0085554.124745-.0477674.854577-.183227 1.661836-.4078049 2.421062-.118349.022942-.2324203.050185-.3450658.080296-.1119324.029394-.2388368.05592-.38.079579l-.0891182-.017924c-.7436024-.177797-1.1150471-.658138-1.1150471-1.441739 0-.189986.0235272-.450947.0705816-.782885z" fill="#373a36"/><path d="m64.5906817 144.931307c.0514383-.216096.2160408-.390133.4914336-.522837l.1376964-.053661c.0395679-.119651.0846753-.569971.1376964-1.350237-.7074745-.179839-1.0612118-.528638-1.0612118-1.044948.0126617-.491655.3205002-.881788.9235154-1.170399l1.2368933-.467725c.1709335-.084117.3838089-.168235.6394177-.252353.2556088-.083393.4938077-.158809.7169708-.224798.2231631-.065264.3798521-.110949.472441-.134879.313378-.084118.6212165-.159534.9227241-.225523s.6085547-.134879.9243067-.206669c.0783445-.036258.2089187-.054386.3925138-.054386.2484866 0 .5302102.060187.8451709.180563.1574804.060188.3173348.146481.481146.26033.1638112.1153.2777668.225523.344241.333571.0261148.096446.055395.189266.0886321.279185.0324457.089919.0490642.170411.0490642.242927 0 .227698-.1187037.408261-.3537372.54024-.6030152.240026-1.3429354.462648-2.2213434.666416-.9163931.216096-1.5581849.395935-1.9253752.539515-.0783445.288612-.1376964.804922-.176473 1.54893.0514383.012328.1084161.021029.1669767.026831.0585605.006526.1139556.009427.1669766.009427.1171211 0 .4059669-.029732.8641635-.08992.458988-.060187.7866104-.089919.9828673-.089919.4328731 0 .8317178.101522 1.1989081.306015.2746014.335747.4122978.581574.4122978.738208 0 .228423-.1115815.40246-.3339533.522111l-.1764729.162434c-.1321569.155183-.3339533.245103-.6093461.269758-.2753927.04786-.7992721.084118-1.571638.108048-.4985558.02393-.891861.07179-1.1799155.14358-.1962569.756336-.2951767 1.362565-.2951767 1.818687 0 .192891.0269061.384332.0791358.576498.4843114.276284 1.2645909.414063 2.3384644.414063h.2548174c.0530211 0 .1020853-.0029.1487754-.008702.0443161-.005801.0941717-.009427.1464014-.009427l.1376964-.089919c.0910062-.04786.1875519-.092819.284889-.135604.0989198-.041333.2065446-.063088.324457-.063088.5365411 0 .8712857.360402 1.0018599 1.081205l.0197839.197967c0 .275559-.0910062.509784-.2753927.70195-.1828038.19144-.4249595.294412-.7264671.30674-.0522297 0-.1084161.002901-.1669767.007977-.0585605.006526-.1218692.009427-.1867606.009427h-.3537372c-1.2574687 0-2.4104781-.126177-3.4590281-.377806-.4312904-.108048-.8214301-.339372-1.1688365-.693247-.3474064-.354601-.5468287-.735307-.5990584-1.143569-.0656828-.56417-.0981285-1.068152-.0981285-1.512672 0-.443794.0189926-.833927.0585606-1.170399-.3015076-.240026-.4518657-.49238-.4518657-.756336z" fill="#373a36"/><path d="m79.1496316 147.988899c-.3390097-.484946-.6035284-1.024692-.7927961-1.62149-.1885076-.596798-.2827614-1.149306-.2827614-1.659024 0-1.901497.4271825-3.366843 1.2830679-4.399041.4910319-.596047 1.0573148-1.102763 1.6996089-1.519396.6415339-.416632 1.2131377-.649346 1.7170915-.698892l.2637586-.018767c.2896024 0 .5792048.099842.8688072.298024.1885076.125365.2827614.361082.2827614.708651 0 .286013-.075251.528485-.2265131.727418-.1505021.198182-.3770152.334808-.6795396.409877-.5784447.124614-1.2268196.528485-1.9436046 1.211613-.3656135.360331-.6225312.779966-.7745534 1.258155-.1505021.47819-.2265132 1.083996-.2265132 1.816669 0 .448162.0790516.907584.2363946 1.379768.1573431.472183.3557321.885813.5944071 1.240139.239435.353575.47811.599801.7175451.735676.3519315.186171.7236259.354325 1.1128029.503712.3906972.148637.8376427.286013 1.3408364.409877.1885076.037534.3390096.137376.4530263.298024.1132566.161398.1695049.347569.1695049.560014 0 .284511-.1033752.539746-.3116457.763451-.2067503.223706-.437064.335559-.6886608.335559-.2896024 0-.6324127-.049546-1.0284306-.149388-.396018-.099091-.7836748-.22896-1.16069-.391109-1.0193093-.422638-1.8941974-1.155311-2.6239043-2.19952" fill="#373a36"/><path d="m89.8431772 144.406091c-.0245531.075822-.0706831.246613-.13839.513138-.067707.266525-.1510386.583598-.2492508.950453l1.4225897-.151644-.1294616-.760515c-.0617547-.2918-.114581-.580535-.1569908-.865441-.0431539-.284907-.0892839-.554495-.139134-.808766-.0245531-.101096-.0491062-.208319-.0729152-.3232-.0252971-.11335-.0498502-.228232-.0744032-.342347-.1726155.570578-.3258862 1.16643-.4620441 1.788322m-2.8265788 1.882526c.0498502 0 .1540147-.019147.3139817-.057441.0491061-.304053.1324377-.671674.2499948-1.102863.1160691-.430423.252227-.902969.4062417-1.416872.1540147-.513138.3110055-1.061506.4709724-1.645104.4307947-1.609873.781978-2.770177 1.0535498-3.480144.1718714-.342347.4732045-.513904.9054873-.513904.1227653 0 .2514829.026806.3876408.076588.1354139.050548.252227.114116.3511833.189937.4426992.418935.7194792.951219.8310841 1.59762.0483621.254271.09226.510839.1294616.770472.0364576.260398.0677069.516967.09226.770472.5915057 3.004535 1.1941719 5.451512 1.8102306 7.34093.0863078.215211.1294616.43655.1294616.664781 0 .367621-.1480624.684694-.4434432.951219-.2581792.241252-.5051979.361494-.7395681.361494-.7633772-.127135-1.2373258-.729115-1.4218458-1.807469-.0252971-.176918-.0617547-.386002-.1108608-.627253-.0498502-.240486-.1049085-.500118-.1666632-.779663-.3318384.038294-.6004341.073524-.8035549.104925s-.3660639.054377-.4895733.066631c-.3206779.051314-.6525163.075822-.9977473.075822l-.2953808 1.350241c-.1227654.608106-.2306501 1.081418-.3236541 1.416872-.09226.33622-.1748476.605043-.2492508.808766-.1101168.316308-.3630878.474844-.7574249.474844-.1480625 0-.2775241-.025274-.3876409-.075822-.2589232-.101861-.462044-.23206-.6093624-.390597-.1488065-.158536-.2284179-.325498-.2410665-.503947v-.189937c0-.557559.1354139-1.197832.4069857-1.92082.0855637-.215211.2150253-.576705.3876408-1.083716l-.2403224-.05744c-.2708278-.215212-.4054976-.424296-.4054976-.627254 0-.164663.0483621-.304053.1473184-.418168.1227653-.151644.3258861-.259633.6093624-.3232" fill="#373a36"/><path d="m95.3495217 150.276665c-.0359631-.621992-.0532254-1.314906-.0532254-2.078034 0-1.268098.071207-2.83549.2143402-4.702175l.3747356-4.719195c.0359631-.469509.3869631-.704972 1.0537193-.704972.1546414 0 .3394918.050355.5531127.150356.2150595.100001.4293996.231917.6437398.396458.4164529.868094.9163402 2.18371 1.5003812 3.944011.1424139.446813.2553381.801426.3394918 1.065968.0827151.263832.1481681.481565.1956391.65107.048191.170214.101416.340429.161115.511353.059699.170214.143133.390074.249584.659581l.589795-6.709287c.035963-.446103.32151-.66951.857361-.66951.130906 0 .274039.017731.42868.053192l.357473.087944c.261093.105675.433716.299294.517869.581566l-.482625 4.789409c-.202832 1.961013-.303528 3.516347-.303528 4.667423v.246101c0 .411352.011508.73405.035963.968804 0 .269506-.110767.51348-.330142.731213-.220813.216314-.468239.325535-.742278.325535-.512115 0-.922095-.317733-1.231377-.951073-.6077771-1.221289-1.4953468-3.563156-2.6619902-7.026311-.0474713.727667-.0704877 1.895764-.0704877 3.50429v1.726259c0 1.056038.0230164 2.030516.0704877 2.922724 0 .504969-.1596763.845398-.4819058 1.021286-.1668688.106384-.3150369.158867-.4466619.158867-.1309057 0-.2913012-.047518-.4819057-.140427l-.3387726-.158867c-.26325-.106384-.4229262-.329081-.482625-.668801z" fill="#373a36"/><path d="m107.289963 136.99105c.282413.115144.459544.275374.529969.482077.071137.218495.105994.442539.105994.672133 0 .332945-.135871.837911-.406191 1.515593-.330075.746352-.524279 1.21733-.583322 1.412242-.329364 1.068198-.84226 1.601604-1.536555 1.601604-.165038 0-.288816-.02289-.371334-.06867-.364221-.103352-.547043-.321153-.547043-.654792 0-.04578.002846-.09156.008537-.138033.005691-.045087.014939-.097109.027032-.154681.04695-.18312.132314-.450169.256092-.801149.123778-.350286.273877-.777565.450296-1.282532.317982-.872593.500092-1.556518.547043-2.049692.023475-.195606.106705-.344737.247556-.448089.141562-.102658.335765-.155374.58261-.155374h.133026c.040548 0 .085364.006242.132314.018034z" fill="#373a36"/><path d="m114.721853 149.719897c0 .112113-.00287.196386-.009328.252819-.00574.05568-.007893.08954-.007893.102331-.13131.436414-.381015.653869-.748397.653869-.404694-.012792-.751985-.189615-1.043307-.531974-.290605-.343111-.459945-.756952-.507303-1.243027-.035159-.4477-.053816-.945813-.053816-1.49434 0-.847245.053816-2.154982.16073-3.923962.095433-1.519172.142791-2.689964.142791-3.512379-.119112.012792-.255445.024831-.409717.037622-.154989.012792-.327199.03085-.517348.055681l-.124853.01881c-.154271.049661-.332222.074492-.533852.074492-.665879 0-1.235608-.198644-1.710621-.598188-.190149-.410078-.284865-.665155-.284865-.765229 0-.199396.094716-.398039.284865-.598188.499409-.186604 1.080619-.310757 1.745781-.373209.630003-.087283 1.134435-.187357 1.514733-.29947.249705-.074491.459945-.136191.632155-.186605.17221-.04966.353749-.074491.543897-.074491.082518 0 .231049.012039.445595.037622.106913.02483.213827.052671.320024.083521.107631.031602.213827.046651.321459.046651.462815 0 .944286-.062453 1.442978-.187357l.837373-.242285c.284864-.08653.588385-.130924.908409-.130924.023679 0 .044487.003009.062426.009781.017939.00602.033007.00903.044488.00903h.124852c.308543 0 .49941.106093.570447.317528.355901.074492.533851.30549.533851.690738-.154271.648601-.444876 1.028582-.873249 1.139943-.510173.124905-1.039002.243037-1.585052.355903-.54605.111361-1.188251.229493-1.92445.354398-.226026 3.138417-.33868 5.610927-.33868 7.417529 0 .398792.00287.787802.009328 1.167783.00574.379981.014351.762972.026549 1.148972z" fill="#373a36"/><path d="m124.519191 148.384423c-.2941-.913683-.56813-2.278399-.823635-4.094145-.268627-1.839715-.537253-3.155768-.805108-3.949613-.013123-.035588-.023158-.074808-.028561-.116934-.006947-.042125-.010035-.081345-.010035-.116934 0-.216437.067157-.408906.20147-.577407.133541-.168502.296416-.258563.487851-.270183.128138-.024695.275574-.036315.441536-.036315.497886 0 .887704.240404 1.168681.721214.255504 1.03425.619849 3.318459 1.092262 6.852628l.211505-.919494c.089542-.384212.156699-.748087.20147-1.0909.043999-.342813.09263-.670374.143576-.983409.063297-.275267.124279-.554892.1814-.838149.058666-.28253.1127-.549808.163647-.801833.076419-.769877.434589-1.154815 1.072963-1.154815.179085 0 .447712.042125.805109.126376.14126.08425.255504.192469.345046.324655.15284.337003.2941.760435.421467 1.271749.128138.510588.223855 1.042239.287924 1.595679.140489.733561.255505 1.562994.345047 2.489025l.632971-3.318459c.24161-1.310242.599779-2.477404 1.072964-3.499307.089542-.156154.203786-.267278.345046-.333371.140489-.066093.319574-.099503.536482-.099503.242382 0 .466237.048662.670795.14526.434589.180122.652269.48081.652269.901337 0 .216437-.084139.498241-.249329.84759l-.287152.594839c-.256277.709594-.632972 2.049615-1.13163 4.021516-.434588 1.791779-.824406 3.138337-1.169453 4.0404-.064069.191742-.1814.342086-.354309.450305-.172909.108218-.392905.162691-.66076.162691-.20533 0-.409888-.042126-.613674-.126376-.14126-.060283-.261679-.141629-.364344-.24331-.102665-.102408-.191435-.232416-.268627-.387844-.07642-.156154-.179085-.439411-.306451-.84759 0-.011621-.003087-.0276-.009263-.045031-.006947-.018157-.009263-.03341-.009263-.045031 0-.036314-.013122-.111123-.038596-.225878-.025473-.114029-.067156-.312309-.124278-.594839-.058666-.28253-.128138-.676184-.211505-1.180962-.082595-.505504-.175225-1.160625-.27789-1.96609l-.344275 1.911618c-.281749 1.634898-.652269 2.698926-1.112331 3.192083-.14126.132186-.319573.198279-.536482.198279-.051718 0-.105752-.002905-.162874-.008715-.057122-.006537-.118103-.021789-.182944-.045757-.575078-.071177-.957948-.40237-1.149383-.991398z" fill="#373a36"/><path d="m138.065399 144.406091c-.024553.075822-.070683.246613-.13839.513138s-.151038.583598-.24925.950453l1.422589-.151644-.129461-.760515c-.061755-.2918-.114581-.580535-.156991-.865441-.043154-.284907-.089284-.554495-.139134-.808766-.024553-.101096-.049106-.208319-.072915-.3232-.025297-.11335-.04985-.228232-.074404-.342347-.172615.570578-.325886 1.16643-.462044 1.788322m-2.826578 1.882526c.04985 0 .154014-.019147.313981-.057441.049106-.304053.132438-.671674.249995-1.102863.116069-.430423.252227-.902969.406242-1.416872.154014-.513138.311005-1.061506.470972-1.645104.430795-1.609873.781978-2.770177 1.05355-3.480144.171871-.342347.473205-.513904.905487-.513904.122766 0 .251483.026806.387641.076588.135414.050548.252227.114116.351183.189937.4427.418935.71948.951219.831085 1.59762.048362.254271.09226.510839.129461.770472.036458.260398.067707.516967.09226.770472.591506 3.004535 1.194172 5.451512 1.810231 7.34093.086307.215211.129461.43655.129461.664781 0 .367621-.148062.684694-.443443.951219-.258179.241252-.505198.361494-.739568.361494-.763377-.127135-1.237326-.729115-1.421846-1.807469-.025297-.176918-.061754-.386002-.110861-.627253-.04985-.240486-.104908-.500118-.166663-.779663-.331838.038294-.600434.073524-.803555.104925s-.366064.054377-.489573.066631c-.320678.051314-.652516.075822-.997747.075822l-.295381 1.350241c-.122765.608106-.23065 1.081418-.323654 1.416872-.09226.33622-.174848.605043-.249251.808766-.110117.316308-.363088.474844-.757425.474844-.148062 0-.277524-.025274-.387641-.075822-.258923-.101861-.462044-.23206-.609362-.390597-.148807-.158536-.228418-.325498-.241067-.503947v-.189937c0-.557559.135414-1.197832.406986-1.92082.085564-.215211.215025-.576705.387641-1.083716l-.240323-.05744c-.270827-.215212-.405497-.424296-.405497-.627254 0-.164663.048362-.304053.147318-.418168.122766-.151644.325886-.259633.609363-.3232" fill="#373a36"/><path d="m144.535431 140.928157c-.0255-.059999-.038636-.149635-.038636-.269633 0-.251561.102773-.513965.307546-.790104.217138-.262404.56873-.39469 1.054777-.39469l3.473422-.250838c.293637.011566.54632.095419.757275.250838.211728.156141.317592.347703.317592.574686 0 .503122-.474456.855886-1.420278 1.059014l-.556365.053493v.48505c0 .239272-.019318.573964-.057955 1.005521-.037864.430112-.083455.906488-.134455 1.426236-.051.520471-.102773 1.044556-.153001 1.57081-.051772.526977-.095818 1.005521-.134455 1.436356-.038636.430111-.057182.765526-.057182 1.004798v.772032c.255774-.059276.472911-.089637.651412-.089637.26891 0 .467502.06289.595002.187948.128273.125781.19241.320957.19241.583361 0 .466978-.415729.826248-1.247187 1.077086l-.671502.089637c-1.522278.012289-2.411691.018795-2.667464.018795-.486048 0-.81214-.072288-.978277-.21614-.166909-.14313-.249591-.388908-.249591-.735889 0-.250838.153773-.4424.460547-.574686.306774-.130841.894821-.208912 1.764915-.232767-.089636-.275415-.133682-.747454-.133682-1.418283 0-.226983.018545-.544326.057182-.951305.038636-.40698.086546-.855163.143728-1.346719.057954-.489388.118227-.986727.182364-1.489126s.118228-.966485.163819-1.391537c.044045-.424328.072636-.768417.085773-1.032267h-.499184c-.332274 0-.591138-.03253-.776594-.097589-.186227-.065781-.329955-.171321-.431956-.314451" fill="#373a36"/><path d="m156.055186 149.719897c0 .112113-.00287.196386-.009328.252819-.00574.05568-.007893.08954-.007893.102331-.13131.436414-.381015.653869-.748397.653869-.404694-.012792-.751984-.189615-1.043307-.531974-.290605-.343111-.459945-.756952-.507303-1.243027-.035159-.4477-.053815-.945813-.053815-1.49434 0-.847245.053815-2.154982.160729-3.923962.095434-1.519172.142791-2.689964.142791-3.512379-.119112.012792-.255445.024831-.409717.037622-.154989.012792-.327199.03085-.517348.055681l-.124852.01881c-.154272.049661-.332223.074492-.533852.074492-.66588 0-1.235609-.198644-1.710622-.598188-.190149-.410078-.284865-.665155-.284865-.765229 0-.199396.094716-.398039.284865-.598188.49941-.186604 1.080619-.310757 1.745781-.373209.630003-.087283 1.134436-.187357 1.514733-.29947.249705-.074491.459945-.136191.632155-.186605.172211-.04966.353749-.074491.543898-.074491.082517 0 .231049.012039.445594.037622.106914.02483.213828.052671.320024.083521.107631.031602.213828.046651.321459.046651.462815 0 .944286-.062453 1.442979-.187357l.837372-.242285c.284864-.08653.588385-.130924.908409-.130924.023679 0 .044488.003009.062426.009781.017939.00602.033007.00903.044488.00903h.124852c.308544 0 .49941.106093.570447.317528.355901.074492.533852.30549.533852.690738-.154272.648601-.444877 1.028582-.87325 1.139943-.510173.124905-1.039002.243037-1.585052.355903-.54605.111361-1.188251.229493-1.924449.354398-.226026 3.138417-.338681 5.610927-.338681 7.417529 0 .398792.002871.787802.009328 1.167783.005741.379981.014351.762972.026549 1.148972z" fill="#373a36"/></g></g></svg>