<?xml version="1.0" encoding="utf-8"?>
<!-- Generator: Adobe Illustrator 25.4.1, SVG Export Plug-In . SVG Version: 6.00 Build 0)  -->
<svg version="1.1" id="Capa_1" xmlns="http://www.w3.org/2000/svg" xmlns:xlink="http://www.w3.org/1999/xlink" x="0px" y="0px"
	 viewBox="0 0 428.85 297.79" style="enable-background:new 0 0 428.85 297.79;" xml:space="preserve">
<style type="text/css">
	.st0{enable-background:new    ;}
	.st1{fill:#E94E1B;}
	.st2{fill:#D7264A;}
	.st3{fill:#F9B233;}
	.st4{fill:#AFCA0B;}
	.st5{fill:#94C024;}
	.st6{fill:#EC6608;}
	.st7{fill:#4EBBB6;}
	.st8{fill:#FFFFFF;}
</style>
<g class="st0">
	<g class="st0">
		<path class="st1" d="M198.55,242.8c0,5.31-4.91,9.55-10.89,9.55H36.75c-6.01,0-10.89-4.24-10.89-9.55V116.15
			c0-5.27,4.88-9.55,10.89-9.55h150.91c5.98,0,10.89,4.27,10.89,9.55V242.8z"/>
		<path class="st2" d="M294.72,174.57c0,5.23-6.35,9.41-14.12,9.41H84.29c-7.83,0-14.15-4.19-14.15-9.41V49.77
			c0-5.2,6.32-9.42,14.15-9.42H280.6c7.76,0,14.12,4.22,14.12,9.42V174.57z"/>
		<path class="st3" d="M239.09,277.87c0,4.45-3.1,8.03-6.91,8.03h-95.77c-3.82,0-6.9-3.59-6.9-8.03V171.28
			c0-4.43,3.08-8.04,6.9-8.04h95.77c3.81,0,6.91,3.6,6.91,8.04V277.87z"/>
		<path class="st4" d="M406.34,184.64c0,4.04-3.16,7.28-7.06,7.29l-97.54-0.01c-3.91,0.02-7.04-3.24-7.01-7.26l-0.01-96.49
			c-0.01-4.03,3.12-7.27,7-7.28l97.57,0c3.89-0.01,7.03,3.25,7.05,7.28L406.34,184.64z"/>
		<path class="st5" d="M413.59,247.36c0,2.77-2.45,4.99-5.5,4.99h-76.39c-3.04,0-5.5-2.22-5.5-4.99v-66.11
			c0-2.74,2.46-4.95,5.5-4.95h76.39c3.04,0,5.5,2.21,5.5,4.95V247.36z"/>
		<path class="st6" d="M358.82,257.62c0,5.99-4.53,10.81-10.11,10.81H208.65c-5.59,0-10.1-4.82-10.1-10.81V114.24
			c0-5.97,4.51-10.79,10.1-10.79h140.06c5.58,0,10.11,4.82,10.11,10.79V257.62z"/>
		<path class="st7" d="M136.91,128.37c0,4.45-3.41,8.05-7.61,8.05H23.61c-4.22,0-7.63-3.59-7.63-8.05V21.48
			c0-4.44,3.41-8.04,7.63-8.04h105.7c4.2,0,7.61,3.6,7.61,8.04V128.37z"/>
		<g>
			<g>
				<path class="st8" d="M173.21,152.16c0,4.46-1.33,9.23-4,14.3c-2.67,5.09-6.74,9.91-12.2,14.5c-5.47,4.59-12.36,8.29-20.67,11.09
					c-8.32,2.8-17.67,4.2-28.08,4.2c-22.13,0-39.4-6.44-51.82-19.34c-12.42-12.9-18.64-30.2-18.64-51.89
					c0-14.69,2.84-27.67,8.53-38.97c5.68-11.27,13.91-20,24.67-26.17c10.77-6.16,23.62-9.25,38.57-9.25
					c9.28,0,17.78,1.35,25.52,4.07c7.74,2.71,14.31,6.21,19.68,10.49c5.38,4.29,9.49,8.86,12.33,13.71
					c2.85,4.84,4.27,9.38,4.27,13.58c0,4.29-1.6,7.92-4.79,10.89c-3.19,2.98-7.07,4.47-11.62,4.47c-2.98,0-5.45-0.77-7.41-2.3
					c-1.98-1.54-4.18-4-6.63-7.42c-4.38-6.64-8.94-11.62-13.71-14.95c-4.77-3.32-10.82-4.99-18.16-4.99
					c-10.59,0-19.12,4.13-25.58,12.41c-6.48,8.26-9.71,19.57-9.71,33.91c0,6.74,0.83,12.92,2.49,18.56
					c1.66,5.64,4.07,10.45,7.22,14.43c3.14,3.98,6.95,7,11.41,9.05c4.46,2.05,9.36,3.09,14.69,3.09c7.18,0,13.32-1.66,18.43-4.99
					c5.12-3.32,9.64-8.4,13.59-15.22c2.18-4.02,4.54-7.17,7.08-9.45c2.53-2.28,5.65-3.42,9.32-3.42c4.37,0,8,1.67,10.89,4.98
					C171.76,144.86,173.21,148.4,173.21,152.16z"/>
				<path class="st8" d="M208.55,159.47v21.44c0,5.21-1.21,9.11-3.66,11.7c-2.44,2.61-5.55,3.91-9.31,3.91
					c-3.7,0-6.74-1.32-9.11-3.95c-2.39-2.63-3.57-6.51-3.57-11.66v-71.45c0-11.53,4.16-17.3,12.51-17.3c4.25,0,7.33,1.35,9.2,4.05
					c1.88,2.68,2.92,6.68,3.11,11.94c3.07-5.26,6.21-9.25,9.45-11.94c3.22-2.7,7.54-4.05,12.93-4.05c5.39,0,10.63,1.35,15.71,4.05
					c5.07,2.68,7.61,6.26,7.61,10.71c0,3.13-1.08,5.72-3.24,7.77c-2.16,2.04-4.5,3.04-7.01,3.04c-0.94,0-3.21-0.58-6.82-1.74
					c-3.59-1.16-6.78-1.74-9.55-1.74c-3.75,0-6.83,0.99-9.22,2.96c-2.38,1.98-4.22,4.91-5.54,8.79c-1.32,3.9-2.24,8.51-2.73,13.87
					C208.81,145.23,208.55,151.76,208.55,159.47z"/>
				<path class="st8" d="M275.03,80.21c-3.57,0-6.63-1.1-9.18-3.29c-2.53-2.19-3.8-5.29-3.8-9.31c0-3.63,1.3-6.63,3.89-8.98
					c2.6-2.35,5.63-3.52,9.08-3.52c3.32,0,6.26,1.07,8.83,3.19c2.57,2.14,3.86,5.25,3.86,9.31c0,3.95-1.26,7.04-3.76,9.27
					C281.46,79.1,278.48,80.21,275.03,80.21z M287.72,106.72v74.19c0,5.15-1.22,9.03-3.67,11.66c-2.44,2.63-5.55,3.95-9.3,3.95
					c-3.77,0-6.82-1.35-9.17-4.04c-2.35-2.69-3.52-6.54-3.52-11.56v-73.43c0-5.08,1.17-8.91,3.52-11.47
					c2.35-2.57,5.41-3.86,9.17-3.86c3.75,0,6.86,1.29,9.3,3.86C286.51,98.57,287.72,102.15,287.72,106.72z"/>
				<path class="st8" d="M389.59,162.95c0,7.09-1.73,13.15-5.17,18.2c-3.46,5.04-8.54,8.88-15.27,11.46
					c-6.74,2.61-14.94,3.91-24.59,3.91c-9.22,0-17.12-1.41-23.7-4.24c-6.58-2.81-11.45-6.34-14.57-10.57
					c-3.14-4.24-4.7-8.48-4.7-12.74c0-2.83,1-5.23,3-7.25c2.01-2.01,4.55-3.01,7.61-3.01c2.7,0,4.77,0.66,6.21,1.98
					c1.44,1.31,2.83,3.17,4.14,5.54c2.63,4.58,5.79,7.99,9.45,10.25c3.67,2.26,8.66,3.38,14.99,3.38c5.14,0,9.36-1.14,12.65-3.43
					c3.29-2.29,4.93-4.9,4.93-7.85c0-4.51-1.7-7.82-5.12-9.88c-3.41-2.07-9.05-4.04-16.88-5.92c-8.85-2.2-16.04-4.5-21.58-6.91
					c-5.55-2.41-9.99-5.6-13.31-9.54c-3.32-3.95-4.98-8.81-4.98-14.58c0-5.13,1.54-10,4.6-14.56c3.08-4.58,7.6-8.23,13.59-10.96
					c5.98-2.73,13.2-4.09,21.67-4.09c6.64,0,12.61,0.69,17.91,2.07c5.3,1.38,9.7,3.23,13.26,5.54c3.54,2.33,6.24,4.89,8.07,7.72
					c1.85,2.82,2.78,5.58,2.78,8.28c0,2.94-0.99,5.34-2.97,7.23c-1.97,1.87-4.77,2.81-8.41,2.81c-2.62,0-4.87-0.74-6.71-2.24
					c-1.86-1.5-3.97-3.77-6.35-6.77c-1.94-2.51-4.24-4.52-6.87-6.02c-2.62-1.5-6.2-2.25-10.71-2.25c-4.65,0-8.51,0.99-11.57,2.96
					c-3.07,1.98-4.6,4.43-4.6,7.37c0,2.71,1.12,4.91,3.38,6.63c2.26,1.72,5.29,3.16,9.13,4.28c3.81,1.13,9.08,2.52,15.79,4.14
					c7.95,1.95,14.46,4.26,19.51,6.96c5.04,2.7,8.86,5.87,11.47,9.54C388.29,154.07,389.59,158.25,389.59,162.95z"/>
			</g>
		</g>
	</g>
	<g>
		<path class="st8" d="M58.91,228.1c0,0.69-0.21,1.44-0.62,2.23s-1.05,1.54-1.9,2.26c-0.85,0.72-1.93,1.29-3.22,1.73
			c-1.3,0.44-2.75,0.65-4.38,0.65c-3.45,0-6.14-1-8.08-3.02c-1.94-2.01-2.9-4.71-2.9-8.09c0-2.29,0.44-4.31,1.33-6.07
			c0.89-1.76,2.17-3.12,3.84-4.08c1.68-0.96,3.68-1.44,6.01-1.44c1.44,0,2.77,0.21,3.98,0.63c1.21,0.42,2.23,0.97,3.07,1.64
			c0.84,0.67,1.48,1.38,1.92,2.14c0.44,0.76,0.66,1.46,0.66,2.12c0,0.67-0.25,1.23-0.75,1.7c-0.5,0.46-1.1,0.69-1.81,0.69
			c-0.46,0-0.85-0.12-1.16-0.36c-0.31-0.24-0.65-0.62-1.03-1.16c-0.68-1.04-1.39-1.81-2.14-2.33c-0.74-0.52-1.69-0.78-2.83-0.78
			c-1.65,0-2.98,0.64-3.99,1.93c-1.01,1.29-1.51,3.05-1.51,5.28c0,1.05,0.13,2.01,0.39,2.89s0.63,1.63,1.12,2.25
			c0.49,0.62,1.08,1.09,1.78,1.41c0.7,0.32,1.46,0.48,2.29,0.48c1.12,0,2.08-0.26,2.87-0.78c0.8-0.52,1.5-1.31,2.12-2.37
			c0.34-0.63,0.71-1.12,1.1-1.47c0.4-0.35,0.88-0.53,1.45-0.53c0.68,0,1.25,0.26,1.7,0.78C58.68,226.96,58.91,227.51,58.91,228.1z"
			/>
		<path class="st8" d="M77.04,231.86c-1.35,1.05-2.66,1.84-3.92,2.36c-1.26,0.52-2.68,0.79-4.24,0.79c-1.43,0-2.69-0.28-3.77-0.85
			c-1.08-0.57-1.92-1.33-2.5-2.3c-0.59-0.97-0.88-2.02-0.88-3.15c0-1.53,0.48-2.83,1.45-3.9c0.97-1.08,2.3-1.8,3.99-2.17
			c0.35-0.08,1.23-0.27,2.64-0.55c1.4-0.29,2.61-0.55,3.61-0.79c1-0.24,2.09-0.53,3.26-0.87c-0.07-1.47-0.36-2.55-0.89-3.24
			s-1.61-1.03-3.26-1.03c-1.42,0-2.48,0.2-3.2,0.59c-0.72,0.4-1.33,0.99-1.84,1.78s-0.87,1.31-1.08,1.56
			c-0.21,0.25-0.66,0.38-1.36,0.38c-0.63,0-1.17-0.2-1.63-0.6c-0.46-0.4-0.69-0.92-0.69-1.54c0-0.98,0.35-1.94,1.04-2.86
			c0.7-0.93,1.78-1.69,3.25-2.29c1.47-0.6,3.31-0.9,5.5-0.9c2.45,0,4.38,0.29,5.79,0.87c1.4,0.58,2.4,1.5,2.98,2.75
			c0.58,1.25,0.87,2.92,0.87,4.99c0,1.31,0,2.42-0.01,3.33c-0.01,0.91-0.02,1.93-0.03,3.05c0,1.05,0.17,2.14,0.52,3.28
			c0.35,1.14,0.52,1.87,0.52,2.2c0,0.57-0.27,1.09-0.81,1.56c-0.54,0.47-1.15,0.71-1.83,0.71c-0.57,0-1.14-0.27-1.7-0.81
			C78.26,233.66,77.67,232.88,77.04,231.86z M76.67,223.78c-0.82,0.3-2.01,0.62-3.57,0.95c-1.56,0.33-2.64,0.58-3.24,0.74
			c-0.6,0.16-1.17,0.46-1.72,0.92c-0.55,0.46-0.82,1.09-0.82,1.91c0,0.85,0.32,1.56,0.96,2.16c0.64,0.59,1.48,0.89,2.51,0.89
			c1.1,0,2.12-0.24,3.06-0.73c0.93-0.48,1.62-1.11,2.05-1.87c0.5-0.85,0.76-2.24,0.76-4.17V223.78z"/>
		<path class="st8" d="M92.05,215.4v0.67c0.98-1.29,2.06-2.24,3.22-2.85c1.17-0.61,2.5-0.91,4.02-0.91c1.47,0,2.79,0.32,3.95,0.96
			c1.16,0.64,2.02,1.55,2.6,2.72c0.37,0.68,0.61,1.42,0.72,2.21c0.11,0.79,0.16,1.8,0.16,3.03v10.39c0,1.12-0.26,1.96-0.77,2.53
			c-0.51,0.57-1.18,0.86-1.99,0.86c-0.83,0-1.51-0.29-2.02-0.88c-0.52-0.59-0.78-1.42-0.78-2.51v-9.3c0-1.84-0.26-3.25-0.77-4.22
			c-0.51-0.97-1.53-1.46-3.06-1.46c-0.99,0-1.9,0.3-2.72,0.89c-0.82,0.59-1.42,1.41-1.8,2.44c-0.27,0.83-0.41,2.39-0.41,4.66v6.99
			c0,1.13-0.26,1.98-0.79,2.55c-0.52,0.56-1.2,0.85-2.03,0.85c-0.8,0-1.47-0.29-1.98-0.88c-0.52-0.59-0.78-1.42-0.78-2.51v-16.13
			c0-1.06,0.23-1.86,0.69-2.38c0.46-0.52,1.1-0.79,1.9-0.79c0.49,0,0.93,0.12,1.33,0.35c0.4,0.23,0.71,0.58,0.95,1.04
			C91.93,214.17,92.05,214.73,92.05,215.4z"/>
		<path class="st8" d="M131.45,228.1c0,0.69-0.21,1.44-0.62,2.23c-0.42,0.79-1.05,1.54-1.9,2.26c-0.85,0.72-1.93,1.29-3.22,1.73
			c-1.3,0.44-2.75,0.65-4.38,0.65c-3.45,0-6.14-1-8.08-3.02c-1.94-2.01-2.9-4.71-2.9-8.09c0-2.29,0.44-4.31,1.33-6.07
			c0.89-1.76,2.17-3.12,3.84-4.08c1.68-0.96,3.68-1.44,6.01-1.44c1.44,0,2.77,0.21,3.98,0.63c1.21,0.42,2.23,0.97,3.07,1.64
			c0.84,0.67,1.48,1.38,1.92,2.14c0.44,0.76,0.66,1.46,0.66,2.12c0,0.67-0.25,1.23-0.75,1.7c-0.5,0.46-1.1,0.69-1.81,0.69
			c-0.46,0-0.85-0.12-1.16-0.36c-0.31-0.24-0.65-0.62-1.03-1.16c-0.68-1.04-1.39-1.81-2.14-2.33c-0.74-0.52-1.69-0.78-2.83-0.78
			c-1.65,0-2.98,0.64-3.99,1.93c-1.01,1.29-1.51,3.05-1.51,5.28c0,1.05,0.13,2.01,0.39,2.89s0.63,1.63,1.12,2.25
			c0.49,0.62,1.08,1.09,1.78,1.41c0.7,0.32,1.46,0.48,2.29,0.48c1.12,0,2.08-0.26,2.87-0.78c0.8-0.52,1.5-1.31,2.12-2.37
			c0.34-0.63,0.71-1.12,1.1-1.47c0.4-0.35,0.88-0.53,1.45-0.53c0.68,0,1.25,0.26,1.7,0.78C131.23,226.96,131.45,227.51,131.45,228.1
			z"/>
		<path class="st8" d="M151.06,225.03h-10.92c0.01,1.27,0.27,2.39,0.77,3.35c0.5,0.97,1.16,1.7,1.98,2.19
			c0.82,0.49,1.73,0.74,2.73,0.74c0.67,0,1.28-0.08,1.83-0.24c0.55-0.16,1.09-0.4,1.61-0.74c0.52-0.33,0.99-0.69,1.43-1.07
			c0.44-0.38,1-0.9,1.7-1.55c0.29-0.25,0.7-0.37,1.23-0.37c0.57,0,1.04,0.16,1.39,0.47c0.35,0.31,0.53,0.76,0.53,1.33
			c0,0.5-0.2,1.09-0.59,1.77c-0.4,0.67-0.99,1.32-1.79,1.94c-0.8,0.62-1.8,1.13-3.01,1.54c-1.21,0.41-2.59,0.61-4.16,0.61
			c-3.59,0-6.37-1.02-8.36-3.07c-1.99-2.05-2.99-4.82-2.99-8.32c0-1.65,0.25-3.18,0.74-4.59c0.49-1.41,1.21-2.62,2.15-3.63
			c0.94-1.01,2.1-1.78,3.48-2.32c1.38-0.54,2.9-0.81,4.58-0.81c2.18,0,4.05,0.46,5.61,1.38c1.56,0.92,2.73,2.11,3.51,3.57
			c0.78,1.46,1.17,2.94,1.17,4.46c0,1.4-0.4,2.31-1.21,2.73C153.65,224.82,152.52,225.03,151.06,225.03z M140.14,221.86h10.12
			c-0.14-1.91-0.65-3.34-1.54-4.28c-0.89-0.95-2.07-1.42-3.53-1.42c-1.39,0-2.53,0.48-3.42,1.44
			C140.87,218.56,140.33,219.98,140.14,221.86z"/>
		<path class="st8" d="M165.06,226.95v4.66c0,1.13-0.27,1.98-0.8,2.55c-0.53,0.56-1.21,0.85-2.02,0.85c-0.8,0-1.47-0.29-1.98-0.86
			c-0.52-0.57-0.78-1.42-0.78-2.53v-15.54c0-2.51,0.91-3.76,2.72-3.76c0.93,0,1.59,0.29,2,0.88c0.41,0.59,0.63,1.45,0.67,2.6
			c0.67-1.15,1.35-2.01,2.05-2.6c0.7-0.59,1.64-0.88,2.81-0.88c1.17,0,2.31,0.29,3.41,0.88c1.1,0.59,1.66,1.36,1.66,2.33
			c0,0.68-0.24,1.24-0.71,1.69c-0.47,0.44-0.98,0.66-1.52,0.66c-0.2,0-0.7-0.13-1.48-0.38c-0.78-0.25-1.48-0.38-2.08-0.38
			c-0.82,0-1.49,0.21-2,0.64c-0.52,0.43-0.92,1.07-1.21,1.91c-0.29,0.85-0.48,1.85-0.59,3.02S165.06,225.28,165.06,226.95z"/>
		<path class="st8" d="M186.21,212.8h1.33v-1.68c0-1.74,0.22-3.13,0.66-4.16c0.44-1.03,1.19-1.78,2.25-2.25
			c1.06-0.47,2.5-0.71,4.34-0.71c3.26,0,4.89,0.8,4.89,2.39c0,0.52-0.17,0.96-0.51,1.33c-0.34,0.37-0.74,0.55-1.21,0.55
			c-0.22,0-0.59-0.04-1.12-0.12c-0.53-0.08-0.98-0.12-1.35-0.12c-1.01,0-1.66,0.3-1.94,0.89s-0.43,1.44-0.43,2.55v1.33h1.37
			c2.13,0,3.19,0.64,3.19,1.92c0,0.91-0.28,1.49-0.85,1.74c-0.57,0.25-1.35,0.37-2.34,0.37h-1.37v14.78c0,1.1-0.26,1.95-0.79,2.53
			c-0.52,0.58-1.2,0.87-2.03,0.87c-0.79,0-1.45-0.29-1.97-0.87c-0.53-0.58-0.79-1.42-0.79-2.53v-14.78H186
			c-0.83,0-1.47-0.19-1.92-0.56c-0.45-0.37-0.67-0.86-0.67-1.46C183.41,213.47,184.34,212.8,186.21,212.8z"/>
		<path class="st8" d="M220.11,223.66c0,1.66-0.26,3.2-0.78,4.6c-0.52,1.4-1.27,2.61-2.25,3.62c-0.98,1.01-2.15,1.78-3.52,2.32
			c-1.36,0.54-2.9,0.81-4.6,0.81c-1.69,0-3.21-0.27-4.56-0.82s-2.52-1.33-3.51-2.34c-0.99-1.01-1.74-2.21-2.25-3.6
			c-0.51-1.38-0.77-2.91-0.77-4.59c0-1.69,0.26-3.24,0.78-4.64c0.52-1.4,1.26-2.6,2.23-3.6c0.97-0.99,2.14-1.76,3.52-2.3
			c1.38-0.54,2.9-0.81,4.56-0.81c1.69,0,3.22,0.27,4.6,0.82c1.38,0.55,2.56,1.32,3.54,2.33c0.98,1.01,1.73,2.21,2.24,3.6
			C219.85,220.45,220.11,221.98,220.11,223.66z M214.5,223.66c0-2.28-0.5-4.05-1.5-5.32c-1-1.27-2.35-1.9-4.04-1.9
			c-1.09,0-2.05,0.28-2.88,0.85c-0.83,0.57-1.47,1.4-1.92,2.5c-0.45,1.1-0.67,2.39-0.67,3.86c0,1.46,0.22,2.73,0.66,3.82
			c0.44,1.09,1.08,1.93,1.9,2.5c0.82,0.58,1.8,0.87,2.91,0.87c1.69,0,3.04-0.64,4.04-1.91C214,227.67,214.5,225.91,214.5,223.66z"/>
		<path class="st8" d="M238.16,231.86v-0.72c-0.67,0.85-1.37,1.55-2.11,2.13c-0.74,0.57-1.54,1-2.41,1.28
			c-0.87,0.28-1.87,0.42-2.99,0.42c-1.35,0-2.56-0.28-3.63-0.84c-1.07-0.56-1.9-1.33-2.48-2.31c-0.7-1.19-1.04-2.89-1.04-5.11
			v-11.06c0-1.12,0.25-1.95,0.76-2.5s1.17-0.83,2-0.83c0.85,0,1.53,0.28,2.05,0.84c0.52,0.56,0.78,1.39,0.78,2.49v8.93
			c0,1.3,0.11,2.38,0.33,3.26c0.22,0.88,0.61,1.57,1.18,2.06c0.56,0.5,1.33,0.75,2.3,0.75c0.94,0,1.83-0.28,2.66-0.84
			c0.83-0.56,1.44-1.29,1.82-2.19c0.31-0.79,0.47-2.52,0.47-5.19v-6.79c0-1.1,0.26-1.93,0.78-2.49c0.52-0.56,1.19-0.84,2.02-0.84
			s1.5,0.28,2,0.83c0.5,0.55,0.76,1.39,0.76,2.5v16.17c0,1.06-0.24,1.86-0.73,2.39c-0.48,0.53-1.11,0.8-1.87,0.8
			c-0.76,0-1.39-0.28-1.89-0.83C238.41,233.63,238.16,232.85,238.16,231.86z"/>
		<path class="st8" d="M253.19,215.4v0.67c0.98-1.29,2.06-2.24,3.22-2.85c1.17-0.61,2.5-0.91,4.02-0.91c1.47,0,2.79,0.32,3.95,0.96
			c1.16,0.64,2.02,1.55,2.6,2.72c0.37,0.68,0.61,1.42,0.72,2.21c0.11,0.79,0.16,1.8,0.16,3.03v10.39c0,1.12-0.26,1.96-0.77,2.53
			c-0.51,0.57-1.18,0.86-1.99,0.86c-0.83,0-1.51-0.29-2.02-0.88c-0.52-0.59-0.78-1.42-0.78-2.51v-9.3c0-1.84-0.26-3.25-0.77-4.22
			c-0.51-0.97-1.53-1.46-3.06-1.46c-0.99,0-1.9,0.3-2.72,0.89c-0.82,0.59-1.42,1.41-1.8,2.44c-0.27,0.83-0.41,2.39-0.41,4.66v6.99
			c0,1.13-0.26,1.98-0.79,2.55c-0.52,0.56-1.2,0.85-2.03,0.85c-0.8,0-1.46-0.29-1.98-0.88c-0.52-0.59-0.78-1.42-0.78-2.51v-16.13
			c0-1.06,0.23-1.86,0.69-2.38c0.46-0.52,1.1-0.79,1.9-0.79c0.49,0,0.93,0.12,1.33,0.35c0.39,0.23,0.71,0.58,0.95,1.04
			C253.07,214.17,253.19,214.73,253.19,215.4z"/>
		<path class="st8" d="M287.87,231.82v-0.55c-0.75,0.86-1.49,1.56-2.22,2.1c-0.73,0.54-1.52,0.95-2.37,1.23
			c-0.85,0.28-1.78,0.42-2.79,0.42c-1.34,0-2.57-0.28-3.71-0.85c-1.14-0.57-2.12-1.37-2.96-2.42c-0.83-1.05-1.46-2.28-1.89-3.7
			c-0.43-1.42-0.64-2.95-0.64-4.6c0-3.49,0.85-6.21,2.56-8.16c1.7-1.95,3.95-2.92,6.73-2.92c1.61,0,2.96,0.28,4.07,0.83
			c1.1,0.55,2.18,1.4,3.23,2.55v-8.24c0-1.15,0.23-2.01,0.69-2.6c0.46-0.59,1.11-0.88,1.95-0.88c0.84,0,1.5,0.27,1.95,0.81
			c0.46,0.54,0.68,1.33,0.68,2.38v24.62c0,1.06-0.25,1.86-0.74,2.39c-0.49,0.53-1.12,0.8-1.9,0.8c-0.76,0-1.39-0.28-1.89-0.83
			C288.11,233.63,287.87,232.84,287.87,231.82z M276.89,223.62c0,1.51,0.23,2.8,0.71,3.86c0.47,1.06,1.11,1.86,1.93,2.4
			c0.82,0.54,1.71,0.81,2.68,0.81c0.98,0,1.88-0.26,2.69-0.77c0.81-0.51,1.46-1.29,1.94-2.35c0.48-1.06,0.73-2.38,0.73-3.96
			c0-1.49-0.24-2.76-0.73-3.83c-0.48-1.07-1.14-1.89-1.96-2.45c-0.82-0.56-1.73-0.85-2.71-0.85c-1.02,0-1.94,0.29-2.74,0.87
			c-0.8,0.58-1.43,1.41-1.87,2.49C277.11,220.93,276.89,222.19,276.89,223.62z"/>
		<path class="st8" d="M312.01,231.86c-1.35,1.05-2.66,1.84-3.92,2.36c-1.26,0.52-2.67,0.79-4.24,0.79c-1.43,0-2.69-0.28-3.77-0.85
			c-1.08-0.57-1.92-1.33-2.5-2.3c-0.59-0.97-0.88-2.02-0.88-3.15c0-1.53,0.48-2.83,1.45-3.9c0.97-1.08,2.3-1.8,3.99-2.17
			c0.35-0.08,1.23-0.27,2.64-0.55c1.4-0.29,2.61-0.55,3.61-0.79c1-0.24,2.09-0.53,3.26-0.87c-0.07-1.47-0.36-2.55-0.89-3.24
			s-1.61-1.03-3.26-1.03c-1.42,0-2.48,0.2-3.2,0.59c-0.72,0.4-1.33,0.99-1.84,1.78c-0.51,0.79-0.87,1.31-1.08,1.56
			c-0.21,0.25-0.66,0.38-1.36,0.38c-0.63,0-1.17-0.2-1.63-0.6c-0.46-0.4-0.69-0.92-0.69-1.54c0-0.98,0.35-1.94,1.04-2.86
			c0.69-0.93,1.78-1.69,3.25-2.29c1.47-0.6,3.3-0.9,5.5-0.9c2.45,0,4.38,0.29,5.79,0.87c1.4,0.58,2.4,1.5,2.97,2.75
			c0.58,1.25,0.87,2.92,0.87,4.99c0,1.31,0,2.42-0.01,3.33c-0.01,0.91-0.02,1.93-0.03,3.05c0,1.05,0.17,2.14,0.52,3.28
			c0.35,1.14,0.52,1.87,0.52,2.2c0,0.57-0.27,1.09-0.81,1.56c-0.54,0.47-1.15,0.71-1.83,0.71c-0.57,0-1.14-0.27-1.7-0.81
			C313.23,233.66,312.64,232.88,312.01,231.86z M311.64,223.78c-0.82,0.3-2.01,0.62-3.57,0.95c-1.56,0.33-2.64,0.58-3.24,0.74
			c-0.6,0.16-1.17,0.46-1.72,0.92c-0.55,0.46-0.82,1.09-0.82,1.91c0,0.85,0.32,1.56,0.96,2.16c0.64,0.59,1.48,0.89,2.51,0.89
			c1.1,0,2.12-0.24,3.06-0.73c0.93-0.48,1.62-1.11,2.06-1.87c0.5-0.85,0.76-2.24,0.76-4.17V223.78z"/>
		<path class="st8" d="M321.21,212.8h0.61v-3.35c0-0.9,0.02-1.6,0.07-2.12c0.05-0.51,0.18-0.95,0.4-1.32
			c0.22-0.38,0.53-0.69,0.94-0.93c0.41-0.24,0.87-0.36,1.37-0.36c0.71,0,1.35,0.27,1.92,0.8c0.38,0.35,0.62,0.79,0.73,1.3
			c0.1,0.51,0.15,1.24,0.15,2.18v3.8h2.04c0.79,0,1.39,0.19,1.81,0.56c0.42,0.38,0.62,0.86,0.62,1.44c0,0.75-0.3,1.28-0.89,1.57
			c-0.59,0.3-1.44,0.45-2.55,0.45h-1.04v10.26c0,0.87,0.03,1.54,0.09,2.01s0.22,0.85,0.49,1.14c0.27,0.29,0.7,0.44,1.3,0.44
			c0.33,0,0.77-0.06,1.33-0.17c0.56-0.12,0.99-0.17,1.31-0.17c0.45,0,0.86,0.18,1.22,0.54c0.36,0.36,0.54,0.81,0.54,1.34
			c0,0.9-0.49,1.59-1.47,2.06c-0.98,0.48-2.39,0.72-4.23,0.72c-1.74,0-3.07-0.29-3.97-0.88c-0.9-0.59-1.49-1.4-1.77-2.43
			c-0.28-1.04-0.42-2.42-0.42-4.15v-10.71h-0.74c-0.8,0-1.42-0.19-1.84-0.57c-0.42-0.38-0.63-0.87-0.63-1.45
			c0-0.59,0.22-1.07,0.66-1.44C319.73,212.99,320.37,212.8,321.21,212.8z"/>
		<path class="st8" d="M337.72,209.72c-0.78,0-1.44-0.24-1.99-0.72c-0.55-0.48-0.83-1.15-0.83-2.02c0-0.79,0.28-1.44,0.85-1.95
			c0.57-0.51,1.22-0.77,1.97-0.77c0.72,0,1.36,0.23,1.92,0.69c0.56,0.46,0.84,1.14,0.84,2.02c0,0.86-0.27,1.53-0.82,2.01
			C339.11,209.47,338.46,209.72,337.72,209.72z M340.48,215.48v16.13c0,1.12-0.27,1.96-0.8,2.53c-0.53,0.57-1.21,0.86-2.02,0.86
			s-1.48-0.29-1.99-0.88c-0.51-0.59-0.77-1.42-0.77-2.51v-15.97c0-1.1,0.26-1.93,0.77-2.49c0.51-0.56,1.18-0.84,1.99-0.84
			s1.49,0.28,2.02,0.84C340.21,213.71,340.48,214.49,340.48,215.48z"/>
		<path class="st8" d="M366.3,223.66c0,1.66-0.26,3.2-0.78,4.6c-0.52,1.4-1.27,2.61-2.25,3.62c-0.98,1.01-2.15,1.78-3.52,2.32
			c-1.36,0.54-2.9,0.81-4.6,0.81c-1.69,0-3.21-0.27-4.56-0.82c-1.35-0.55-2.52-1.33-3.51-2.34c-0.99-1.01-1.74-2.21-2.25-3.6
			c-0.51-1.38-0.77-2.91-0.77-4.59c0-1.69,0.26-3.24,0.78-4.64c0.52-1.4,1.26-2.6,2.23-3.6c0.97-0.99,2.14-1.76,3.52-2.3
			c1.38-0.54,2.9-0.81,4.56-0.81c1.69,0,3.22,0.27,4.6,0.82s2.56,1.32,3.54,2.33c0.98,1.01,1.73,2.21,2.24,3.6
			C366.04,220.45,366.3,221.98,366.3,223.66z M360.7,223.66c0-2.28-0.5-4.05-1.5-5.32c-1-1.27-2.35-1.9-4.04-1.9
			c-1.09,0-2.05,0.28-2.88,0.85c-0.83,0.57-1.47,1.4-1.92,2.5c-0.45,1.1-0.67,2.39-0.67,3.86c0,1.46,0.22,2.73,0.66,3.82
			c0.44,1.09,1.08,1.93,1.9,2.5c0.82,0.58,1.8,0.87,2.91,0.87c1.69,0,3.04-0.64,4.04-1.91C360.2,227.67,360.7,225.91,360.7,223.66z"
			/>
		<path class="st8" d="M374.93,215.4v0.67c0.98-1.29,2.06-2.24,3.22-2.85c1.17-0.61,2.5-0.91,4.02-0.91c1.47,0,2.79,0.32,3.95,0.96
			c1.16,0.64,2.02,1.55,2.6,2.72c0.37,0.68,0.61,1.42,0.72,2.21c0.11,0.79,0.16,1.8,0.16,3.03v10.39c0,1.12-0.26,1.96-0.77,2.53
			s-1.18,0.86-1.99,0.86c-0.83,0-1.51-0.29-2.02-0.88c-0.52-0.59-0.78-1.42-0.78-2.51v-9.3c0-1.84-0.26-3.25-0.77-4.22
			c-0.51-0.97-1.53-1.46-3.06-1.46c-0.99,0-1.9,0.3-2.72,0.89c-0.82,0.59-1.42,1.41-1.8,2.44c-0.27,0.83-0.41,2.39-0.41,4.66v6.99
			c0,1.13-0.26,1.98-0.79,2.55c-0.52,0.56-1.2,0.85-2.03,0.85c-0.8,0-1.46-0.29-1.98-0.88c-0.52-0.59-0.78-1.42-0.78-2.51v-16.13
			c0-1.06,0.23-1.86,0.69-2.38c0.46-0.52,1.1-0.79,1.9-0.79c0.49,0,0.93,0.12,1.33,0.35c0.39,0.23,0.71,0.58,0.95,1.04
			C374.81,214.17,374.93,214.73,374.93,215.4z"/>
	</g>
</g>
</svg>
